PathFileType	4	(X/Y/Z)	C:\Users\italobelli\Desktop\GitHub\PTbot_officialCBL\Personal_Results\SHRUG22_noisy2.trc
DataRate	CameraRate	NumFrames	NumMarkers	Units	OrigDataRate	OrigDataStartFrame	OrigNumFrames
110.888889	110.888889	29	9	m	110.888889	63	500
Frame#	Time		gu		centelbow		EpL		centpxt8		centijc7		ij		ts		aa		ai
			X1	Y1	Z1	X2	Y2	Z2	X3	Y3	Z3	X4	Y4	Z4	X5	Y5	Z5	X6	Y6	Z6	X7	Y7	Z7	X8	Y8	Z8	X9	Y9	Z9

63	0.55912	-0.084566	-0.01613	0.1636	-0.11333	-0.26311	0.17625	-0.097914	-0.25907	0.20431	-0.046816	-0.15316	-0.008669	-0.046816	0.031938	-0.008669	0	0	0	-0.13654	0.028432	0.049492	-0.11033	0.019645	0.16552	-0.15957	-0.082709	0.051645
64	0.56814	-0.084586	-0.016117	0.16363	-0.1134	-0.26306	0.17623	-0.097974	-0.25902	0.20429	-0.046816	-0.15316	-0.008669	-0.046816	0.031938	-0.008669	0	0	0	-0.13654	0.028449	0.04948	-0.11035	0.019665	0.16551	-0.15959	-0.082691	0.051633
65	0.57715	-0.084607	-0.016104	0.16366	-0.11347	-0.26302	0.17621	-0.098037	-0.25897	0.20428	-0.046816	-0.15316	-0.008669	-0.046816	0.031938	-0.008669	0	0	0	-0.13655	0.028468	0.049468	-0.11037	0.019687	0.16551	-0.1596	-0.082673	0.051622
66	0.58617	-0.084628	-0.016089	0.1637	-0.11354	-0.26296	0.1762	-0.098103	-0.25892	0.20427	-0.046816	-0.15316	-0.008669	-0.046816	0.031938	-0.008669	0	0	0	-0.13656	0.028488	0.049455	-0.11039	0.019711	0.1655	-0.15961	-0.082653	0.05161
67	0.59519	-0.084649	-0.016072	0.16375	-0.11362	-0.2629	0.17619	-0.098172	-0.25886	0.20426	-0.046816	-0.15316	-0.008669	-0.046816	0.031938	-0.008669	0	0	0	-0.13657	0.028509	0.049442	-0.11042	0.019736	0.16549	-0.15962	-0.082633	0.051598
68	0.60421	-0.08467	-0.016055	0.16379	-0.1137	-0.26284	0.17618	-0.098244	-0.25879	0.20425	-0.046816	-0.15316	-0.008669	-0.046816	0.031938	-0.008669	0	0	0	-0.13658	0.028531	0.049429	-0.11044	0.019764	0.16548	-0.15964	-0.082611	0.051586
69	0.61323	-0.084691	-0.016036	0.16384	-0.11378	-0.26277	0.17617	-0.098318	-0.25872	0.20425	-0.046816	-0.15316	-0.008669	-0.046816	0.031938	-0.008669	0	0	0	-0.13659	0.028554	0.049416	-0.11047	0.019793	0.16548	-0.15965	-0.082588	0.051574
70	0.62224	-0.084713	-0.016016	0.16389	-0.11386	-0.2627	0.17617	-0.098395	-0.25865	0.20425	-0.046816	-0.15316	-0.008669	-0.046816	0.031938	-0.008669	0	0	0	-0.1366	0.028579	0.049402	-0.1105	0.019825	0.16547	-0.15967	-0.082564	0.051562
71	0.63126	-0.084735	-0.015995	0.16395	-0.11395	-0.26262	0.17618	-0.098475	-0.25857	0.20425	-0.046816	-0.15316	-0.008669	-0.046816	0.031938	-0.008669	0	0	0	-0.13661	0.028604	0.049388	-0.11053	0.019858	0.16546	-0.15968	-0.082539	0.05155
72	0.64028	-0.084758	-0.015972	0.164	-0.11404	-0.26253	0.17618	-0.098557	-0.25848	0.20426	-0.046816	-0.15316	-0.008669	-0.046816	0.031938	-0.008669	0	0	0	-0.13662	0.028631	0.049373	-0.11056	0.019893	0.16545	-0.15969	-0.082513	0.051538
73	0.6493	-0.08478	-0.015948	0.16406	-0.11413	-0.26244	0.17619	-0.098643	-0.25839	0.20427	-0.046816	-0.15316	-0.008669	-0.046816	0.031938	-0.008669	0	0	0	-0.13664	0.028658	0.049358	-0.11059	0.019931	0.16544	-0.15971	-0.082486	0.051526
74	0.65832	-0.084803	-0.015923	0.16412	-0.11422	-0.26235	0.1762	-0.09873	-0.25829	0.20429	-0.046816	-0.15316	-0.008669	-0.046816	0.031938	-0.008669	0	0	0	-0.13665	0.028687	0.049343	-0.11062	0.01997	0.16543	-0.15973	-0.082458	0.051514
75	0.66733	-0.084827	-0.015897	0.16419	-0.11432	-0.26225	0.17622	-0.098821	-0.25819	0.2043	-0.046816	-0.15316	-0.008669	-0.046816	0.031938	-0.008669	0	0	0	-0.13667	0.028717	0.049328	-0.11065	0.020011	0.16542	-0.15974	-0.082428	0.051502
76	0.67635	-0.084851	-0.015869	0.16425	-0.11441	-0.26214	0.17624	-0.098913	-0.25808	0.20432	-0.046816	-0.15316	-0.008669	-0.046816	0.031938	-0.008669	0	0	0	-0.13668	0.028748	0.049312	-0.11069	0.020053	0.16542	-0.15976	-0.082398	0.05149
77	0.68537	-0.084875	-0.01584	0.16432	-0.11451	-0.26204	0.17626	-0.099009	-0.25797	0.20435	-0.046816	-0.15316	-0.008669	-0.046816	0.031938	-0.008669	0	0	0	-0.1367	0.02878	0.049295	-0.11073	0.020098	0.16541	-0.15977	-0.082366	0.051478
78	0.69439	-0.0849	-0.01581	0.16438	-0.11461	-0.26192	0.17628	-0.099107	-0.25785	0.20437	-0.046816	-0.15316	-0.008669	-0.046816	0.031938	-0.008669	0	0	0	-0.13671	0.028813	0.049278	-0.11076	0.020145	0.1654	-0.15979	-0.082334	0.051466
79	0.70341	-0.084925	-0.015778	0.16445	-0.11472	-0.2618	0.17631	-0.099207	-0.25773	0.2044	-0.046816	-0.15316	-0.008669	-0.046816	0.031938	-0.008669	0	0	0	-0.13673	0.028847	0.049261	-0.1108	0.020193	0.16539	-0.1598	-0.0823	0.051455
80	0.71242	-0.08495	-0.015746	0.16452	-0.11482	-0.26168	0.17634	-0.09931	-0.25761	0.20443	-0.046816	-0.15316	-0.008669	-0.046816	0.031938	-0.008669	0	0	0	-0.13674	0.028882	0.049243	-0.11084	0.020244	0.16538	-0.15982	-0.082265	0.051443
81	0.72144	-0.084977	-0.015712	0.16459	-0.11493	-0.26155	0.17637	-0.099415	-0.25747	0.20447	-0.046816	-0.15316	-0.008669	-0.046816	0.031938	-0.008669	0	0	0	-0.13676	0.028918	0.049225	-0.11089	0.020296	0.16537	-0.15984	-0.08223	0.051432
82	0.73046	-0.085003	-0.015676	0.16466	-0.11504	-0.26142	0.17641	-0.099522	-0.25734	0.20451	-0.046816	-0.15316	-0.008669	-0.046816	0.031938	-0.008669	0	0	0	-0.13678	0.028955	0.049206	-0.11093	0.02035	0.16536	-0.15985	-0.082193	0.05142
83	0.73948	-0.085031	-0.01564	0.16473	-0.11515	-0.26128	0.17644	-0.099632	-0.2572	0.20455	-0.046816	-0.15316	-0.008669	-0.046816	0.031938	-0.008669	0	0	0	-0.13679	0.028993	0.049187	-0.11097	0.020406	0.16535	-0.15987	-0.082155	0.051409
84	0.7485	-0.085059	-0.015602	0.16481	-0.11526	-0.26114	0.17649	-0.099745	-0.25705	0.20459	-0.046816	-0.15316	-0.008669	-0.046816	0.031938	-0.008669	0	0	0	-0.13681	0.029032	0.049168	-0.11102	0.020464	0.16534	-0.15988	-0.082116	0.051398
85	0.75752	-0.085087	-0.015563	0.16488	-0.11537	-0.26099	0.17653	-0.099859	-0.2569	0.20464	-0.046816	-0.15316	-0.008669	-0.046816	0.031938	-0.008669	0	0	0	-0.13683	0.029073	0.049148	-0.11107	0.020524	0.16532	-0.1599	-0.082076	0.051387
86	0.76653	-0.085116	-0.015522	0.16495	-0.11549	-0.26084	0.17658	-0.099976	-0.25674	0.20468	-0.046816	-0.15316	-0.008669	-0.046816	0.031938	-0.008669	0	0	0	-0.13684	0.029114	0.049127	-0.11112	0.020586	0.16531	-0.15992	-0.082035	0.051376
87	0.77555	-0.085146	-0.01548	0.16502	-0.1156	-0.26069	0.17662	-0.1001	-0.25658	0.20474	-0.046816	-0.15316	-0.008669	-0.046816	0.031938	-0.008669	0	0	0	-0.13686	0.029156	0.049106	-0.11117	0.020649	0.1653	-0.15993	-0.081992	0.051366
88	0.78457	-0.085176	-0.015437	0.16509	-0.11572	-0.26053	0.17667	-0.10022	-0.25642	0.20479	-0.046816	-0.15316	-0.008669	-0.046816	0.031938	-0.008669	0	0	0	-0.13688	0.029199	0.049084	-0.11122	0.020715	0.16529	-0.15995	-0.081949	0.051355
89	0.79359	-0.085207	-0.015393	0.16516	-0.11584	-0.26036	0.17673	-0.10034	-0.25625	0.20484	-0.046816	-0.15316	-0.008669	-0.046816	0.031938	-0.008669	0	0	0	-0.13689	0.029243	0.049062	-0.11127	0.020782	0.16528	-0.15996	-0.081905	0.051345
90	0.80261	-0.085239	-0.015348	0.16523	-0.11596	-0.2602	0.17678	-0.10047	-0.25608	0.2049	-0.046816	-0.15316	-0.008669	-0.046816	0.031938	-0.008669	0	0	0	-0.13691	0.029288	0.049039	-0.11133	0.020851	0.16527	-0.15998	-0.08186	0.051335
91	0.81162	-0.085272	-0.015301	0.16529	-0.11608	-0.26002	0.17684	-0.10059	-0.2559	0.20496	-0.046816	-0.15316	-0.008669	-0.046816	0.031938	-0.008669	0	0	0	-0.13692	0.029334	0.049016	-0.11138	0.020922	0.16525	-0.15999	-0.081813	0.051325
